<mxfile host="app.diagrams.net" agent="Mozilla/5.0 (Macintosh; Intel Mac OS X 10_15_7) AppleWebKit/537.36 (KHTML, like Gecko) Chrome/131.0.0.0 Safari/537.36" version="25.0.3">
  <diagram name="第 1 页" id="F-1r_rjjXEC6Koyeu8Gl">
    <mxGraphModel dx="876" dy="577" grid="1" gridSize="10" guides="1" tooltips="1" connect="1" arrows="1" fold="1" page="1" pageScale="1" pageWidth="827" pageHeight="1169" math="0" shadow="0">
      <root>
        <mxCell id="0" />
        <mxCell id="1" parent="0" />
        <mxCell id="Fzyq-Jp3clvIhkNUVsgG-3" value="图书管理系统" style="rounded=0;whiteSpace=wrap;html=1;" vertex="1" parent="1">
          <mxGeometry x="210" y="110" width="170" height="20" as="geometry" />
        </mxCell>
        <mxCell id="Fzyq-Jp3clvIhkNUVsgG-4" value="管理员模块" style="rounded=0;whiteSpace=wrap;html=1;" vertex="1" parent="1">
          <mxGeometry x="40" y="200" width="230" height="20" as="geometry" />
        </mxCell>
        <mxCell id="Fzyq-Jp3clvIhkNUVsgG-6" value="注册" style="rounded=0;whiteSpace=wrap;html=1;" vertex="1" parent="1">
          <mxGeometry x="40" y="300" width="20" height="95" as="geometry" />
        </mxCell>
        <mxCell id="Fzyq-Jp3clvIhkNUVsgG-7" value="登录" style="rounded=0;whiteSpace=wrap;html=1;" vertex="1" parent="1">
          <mxGeometry x="70" y="300" width="20" height="95" as="geometry" />
        </mxCell>
        <mxCell id="Fzyq-Jp3clvIhkNUVsgG-8" value="读者管理" style="rounded=0;whiteSpace=wrap;html=1;" vertex="1" parent="1">
          <mxGeometry x="100" y="300" width="20" height="95" as="geometry" />
        </mxCell>
        <mxCell id="Fzyq-Jp3clvIhkNUVsgG-9" value="书籍管理" style="rounded=0;whiteSpace=wrap;html=1;" vertex="1" parent="1">
          <mxGeometry x="130" y="300" width="20" height="95" as="geometry" />
        </mxCell>
        <mxCell id="Fzyq-Jp3clvIhkNUVsgG-10" value="借阅管理" style="rounded=0;whiteSpace=wrap;html=1;" vertex="1" parent="1">
          <mxGeometry x="160" y="300" width="20" height="95" as="geometry" />
        </mxCell>
        <mxCell id="Fzyq-Jp3clvIhkNUVsgG-11" value="借阅状态" style="rounded=0;whiteSpace=wrap;html=1;" vertex="1" parent="1">
          <mxGeometry x="190" y="300" width="20" height="95" as="geometry" />
        </mxCell>
        <mxCell id="Fzyq-Jp3clvIhkNUVsgG-12" value="修改个人信息" style="rounded=0;whiteSpace=wrap;html=1;" vertex="1" parent="1">
          <mxGeometry x="220" y="300" width="20" height="95" as="geometry" />
        </mxCell>
        <mxCell id="Fzyq-Jp3clvIhkNUVsgG-13" value="管理员模块" style="rounded=0;whiteSpace=wrap;html=1;" vertex="1" parent="1">
          <mxGeometry x="320" y="200" width="220" height="20" as="geometry" />
        </mxCell>
        <mxCell id="Fzyq-Jp3clvIhkNUVsgG-14" value="注册" style="rounded=0;whiteSpace=wrap;html=1;" vertex="1" parent="1">
          <mxGeometry x="340" y="300" width="20" height="95" as="geometry" />
        </mxCell>
        <mxCell id="Fzyq-Jp3clvIhkNUVsgG-15" value="登录" style="rounded=0;whiteSpace=wrap;html=1;" vertex="1" parent="1">
          <mxGeometry x="370" y="300" width="20" height="95" as="geometry" />
        </mxCell>
        <mxCell id="Fzyq-Jp3clvIhkNUVsgG-16" value="查询图书信息" style="rounded=0;whiteSpace=wrap;html=1;" vertex="1" parent="1">
          <mxGeometry x="400" y="300" width="20" height="95" as="geometry" />
        </mxCell>
        <mxCell id="Fzyq-Jp3clvIhkNUVsgG-17" value="借阅和归还图书" style="rounded=0;whiteSpace=wrap;html=1;" vertex="1" parent="1">
          <mxGeometry x="430" y="300" width="20" height="95" as="geometry" />
        </mxCell>
        <mxCell id="Fzyq-Jp3clvIhkNUVsgG-18" value="个人借阅记录" style="rounded=0;whiteSpace=wrap;html=1;" vertex="1" parent="1">
          <mxGeometry x="460" y="300" width="20" height="95" as="geometry" />
        </mxCell>
        <mxCell id="Fzyq-Jp3clvIhkNUVsgG-20" value="修改密码" style="rounded=0;whiteSpace=wrap;html=1;" vertex="1" parent="1">
          <mxGeometry x="520" y="300" width="20" height="95" as="geometry" />
        </mxCell>
        <mxCell id="Fzyq-Jp3clvIhkNUVsgG-21" value="" style="endArrow=none;html=1;rounded=0;entryX=0.5;entryY=1;entryDx=0;entryDy=0;" edge="1" parent="1" target="Fzyq-Jp3clvIhkNUVsgG-3">
          <mxGeometry width="50" height="50" relative="1" as="geometry">
            <mxPoint x="295" y="160" as="sourcePoint" />
            <mxPoint x="220" y="140" as="targetPoint" />
          </mxGeometry>
        </mxCell>
        <mxCell id="Fzyq-Jp3clvIhkNUVsgG-22" value="" style="endArrow=none;html=1;rounded=0;" edge="1" parent="1">
          <mxGeometry width="50" height="50" relative="1" as="geometry">
            <mxPoint x="150" y="160" as="sourcePoint" />
            <mxPoint x="420" y="160" as="targetPoint" />
          </mxGeometry>
        </mxCell>
        <mxCell id="Fzyq-Jp3clvIhkNUVsgG-23" value="" style="endArrow=none;html=1;rounded=0;" edge="1" parent="1">
          <mxGeometry width="50" height="50" relative="1" as="geometry">
            <mxPoint x="150" y="200" as="sourcePoint" />
            <mxPoint x="150" y="160" as="targetPoint" />
          </mxGeometry>
        </mxCell>
        <mxCell id="Fzyq-Jp3clvIhkNUVsgG-24" value="" style="endArrow=none;html=1;rounded=0;exitX=0.397;exitY=0.116;exitDx=0;exitDy=0;exitPerimeter=0;" edge="1" parent="1">
          <mxGeometry width="50" height="50" relative="1" as="geometry">
            <mxPoint x="419.5" y="200" as="sourcePoint" />
            <mxPoint x="420" y="160" as="targetPoint" />
          </mxGeometry>
        </mxCell>
        <mxCell id="Fzyq-Jp3clvIhkNUVsgG-25" value="修改密码" style="rounded=0;whiteSpace=wrap;html=1;" vertex="1" parent="1">
          <mxGeometry x="250" y="300" width="20" height="95" as="geometry" />
        </mxCell>
        <mxCell id="Fzyq-Jp3clvIhkNUVsgG-26" value="修改个人信息" style="rounded=0;whiteSpace=wrap;html=1;" vertex="1" parent="1">
          <mxGeometry x="490" y="300" width="20" height="95" as="geometry" />
        </mxCell>
        <mxCell id="Fzyq-Jp3clvIhkNUVsgG-27" value="" style="endArrow=none;html=1;rounded=0;" edge="1" parent="1">
          <mxGeometry width="50" height="50" relative="1" as="geometry">
            <mxPoint x="50" y="260" as="sourcePoint" />
            <mxPoint x="530" y="260" as="targetPoint" />
          </mxGeometry>
        </mxCell>
        <mxCell id="Fzyq-Jp3clvIhkNUVsgG-28" value="" style="endArrow=none;html=1;rounded=0;entryX=0.48;entryY=0.983;entryDx=0;entryDy=0;entryPerimeter=0;" edge="1" parent="1" target="Fzyq-Jp3clvIhkNUVsgG-4">
          <mxGeometry width="50" height="50" relative="1" as="geometry">
            <mxPoint x="150" y="260" as="sourcePoint" />
            <mxPoint x="160" y="170" as="targetPoint" />
          </mxGeometry>
        </mxCell>
        <mxCell id="Fzyq-Jp3clvIhkNUVsgG-29" value="" style="endArrow=none;html=1;rounded=0;entryX=0.48;entryY=0.983;entryDx=0;entryDy=0;entryPerimeter=0;" edge="1" parent="1">
          <mxGeometry width="50" height="50" relative="1" as="geometry">
            <mxPoint x="420" y="260" as="sourcePoint" />
            <mxPoint x="420" y="220" as="targetPoint" />
          </mxGeometry>
        </mxCell>
        <mxCell id="Fzyq-Jp3clvIhkNUVsgG-30" value="" style="endArrow=none;html=1;rounded=0;entryX=0.48;entryY=0.983;entryDx=0;entryDy=0;entryPerimeter=0;" edge="1" parent="1">
          <mxGeometry width="50" height="50" relative="1" as="geometry">
            <mxPoint x="49.67" y="300" as="sourcePoint" />
            <mxPoint x="49.67" y="260" as="targetPoint" />
          </mxGeometry>
        </mxCell>
        <mxCell id="Fzyq-Jp3clvIhkNUVsgG-31" value="" style="endArrow=none;html=1;rounded=0;entryX=0.48;entryY=0.983;entryDx=0;entryDy=0;entryPerimeter=0;" edge="1" parent="1">
          <mxGeometry width="50" height="50" relative="1" as="geometry">
            <mxPoint x="79.67" y="300" as="sourcePoint" />
            <mxPoint x="79.67" y="260" as="targetPoint" />
          </mxGeometry>
        </mxCell>
        <mxCell id="Fzyq-Jp3clvIhkNUVsgG-32" value="" style="endArrow=none;html=1;rounded=0;entryX=0.48;entryY=0.983;entryDx=0;entryDy=0;entryPerimeter=0;" edge="1" parent="1">
          <mxGeometry width="50" height="50" relative="1" as="geometry">
            <mxPoint x="109.67" y="300" as="sourcePoint" />
            <mxPoint x="109.67" y="260" as="targetPoint" />
          </mxGeometry>
        </mxCell>
        <mxCell id="Fzyq-Jp3clvIhkNUVsgG-33" value="" style="endArrow=none;html=1;rounded=0;entryX=0.48;entryY=0.983;entryDx=0;entryDy=0;entryPerimeter=0;" edge="1" parent="1">
          <mxGeometry width="50" height="50" relative="1" as="geometry">
            <mxPoint x="139.67000000000002" y="300" as="sourcePoint" />
            <mxPoint x="139.67000000000002" y="260" as="targetPoint" />
          </mxGeometry>
        </mxCell>
        <mxCell id="Fzyq-Jp3clvIhkNUVsgG-34" value="" style="endArrow=none;html=1;rounded=0;entryX=0.48;entryY=0.983;entryDx=0;entryDy=0;entryPerimeter=0;" edge="1" parent="1">
          <mxGeometry width="50" height="50" relative="1" as="geometry">
            <mxPoint x="169.67000000000002" y="300" as="sourcePoint" />
            <mxPoint x="169.67000000000002" y="260" as="targetPoint" />
          </mxGeometry>
        </mxCell>
        <mxCell id="Fzyq-Jp3clvIhkNUVsgG-35" value="" style="endArrow=none;html=1;rounded=0;entryX=0.48;entryY=0.983;entryDx=0;entryDy=0;entryPerimeter=0;" edge="1" parent="1">
          <mxGeometry width="50" height="50" relative="1" as="geometry">
            <mxPoint x="199.67000000000002" y="300" as="sourcePoint" />
            <mxPoint x="199.67000000000002" y="260" as="targetPoint" />
          </mxGeometry>
        </mxCell>
        <mxCell id="Fzyq-Jp3clvIhkNUVsgG-36" value="" style="endArrow=none;html=1;rounded=0;entryX=0.48;entryY=0.983;entryDx=0;entryDy=0;entryPerimeter=0;" edge="1" parent="1">
          <mxGeometry width="50" height="50" relative="1" as="geometry">
            <mxPoint x="229.67000000000002" y="300" as="sourcePoint" />
            <mxPoint x="229.67000000000002" y="260" as="targetPoint" />
          </mxGeometry>
        </mxCell>
        <mxCell id="Fzyq-Jp3clvIhkNUVsgG-37" value="" style="endArrow=none;html=1;rounded=0;entryX=0.48;entryY=0.983;entryDx=0;entryDy=0;entryPerimeter=0;" edge="1" parent="1">
          <mxGeometry width="50" height="50" relative="1" as="geometry">
            <mxPoint x="259.67" y="300" as="sourcePoint" />
            <mxPoint x="259.67" y="260" as="targetPoint" />
          </mxGeometry>
        </mxCell>
        <mxCell id="Fzyq-Jp3clvIhkNUVsgG-38" value="" style="endArrow=none;html=1;rounded=0;entryX=0.48;entryY=0.983;entryDx=0;entryDy=0;entryPerimeter=0;" edge="1" parent="1">
          <mxGeometry width="50" height="50" relative="1" as="geometry">
            <mxPoint x="349.67" y="300" as="sourcePoint" />
            <mxPoint x="349.67" y="260" as="targetPoint" />
          </mxGeometry>
        </mxCell>
        <mxCell id="Fzyq-Jp3clvIhkNUVsgG-39" value="" style="endArrow=none;html=1;rounded=0;entryX=0.48;entryY=0.983;entryDx=0;entryDy=0;entryPerimeter=0;" edge="1" parent="1">
          <mxGeometry width="50" height="50" relative="1" as="geometry">
            <mxPoint x="379.67" y="300" as="sourcePoint" />
            <mxPoint x="379.67" y="260" as="targetPoint" />
          </mxGeometry>
        </mxCell>
        <mxCell id="Fzyq-Jp3clvIhkNUVsgG-40" value="" style="endArrow=none;html=1;rounded=0;entryX=0.48;entryY=0.983;entryDx=0;entryDy=0;entryPerimeter=0;" edge="1" parent="1">
          <mxGeometry width="50" height="50" relative="1" as="geometry">
            <mxPoint x="409.67" y="300" as="sourcePoint" />
            <mxPoint x="409.67" y="260" as="targetPoint" />
          </mxGeometry>
        </mxCell>
        <mxCell id="Fzyq-Jp3clvIhkNUVsgG-41" value="" style="endArrow=none;html=1;rounded=0;entryX=0.48;entryY=0.983;entryDx=0;entryDy=0;entryPerimeter=0;" edge="1" parent="1">
          <mxGeometry width="50" height="50" relative="1" as="geometry">
            <mxPoint x="439.67" y="300" as="sourcePoint" />
            <mxPoint x="439.67" y="260" as="targetPoint" />
          </mxGeometry>
        </mxCell>
        <mxCell id="Fzyq-Jp3clvIhkNUVsgG-42" value="" style="endArrow=none;html=1;rounded=0;entryX=0.48;entryY=0.983;entryDx=0;entryDy=0;entryPerimeter=0;" edge="1" parent="1">
          <mxGeometry width="50" height="50" relative="1" as="geometry">
            <mxPoint x="469.67" y="300" as="sourcePoint" />
            <mxPoint x="469.67" y="260" as="targetPoint" />
          </mxGeometry>
        </mxCell>
        <mxCell id="Fzyq-Jp3clvIhkNUVsgG-43" value="" style="endArrow=none;html=1;rounded=0;entryX=0.48;entryY=0.983;entryDx=0;entryDy=0;entryPerimeter=0;" edge="1" parent="1">
          <mxGeometry width="50" height="50" relative="1" as="geometry">
            <mxPoint x="499.67" y="300" as="sourcePoint" />
            <mxPoint x="499.67" y="260" as="targetPoint" />
          </mxGeometry>
        </mxCell>
        <mxCell id="Fzyq-Jp3clvIhkNUVsgG-44" value="" style="endArrow=none;html=1;rounded=0;entryX=0.48;entryY=0.983;entryDx=0;entryDy=0;entryPerimeter=0;" edge="1" parent="1">
          <mxGeometry width="50" height="50" relative="1" as="geometry">
            <mxPoint x="529.6700000000001" y="300" as="sourcePoint" />
            <mxPoint x="529.6700000000001" y="260" as="targetPoint" />
          </mxGeometry>
        </mxCell>
      </root>
    </mxGraphModel>
  </diagram>
</mxfile>
